<?xml version="1.0" encoding="utf-8"?>
<!-- Generator: Adobe Illustrator 27.2.0, SVG Export Plug-In . SVG Version: 6.00 Build 0)  -->
<svg version="1.1" id="Layer_1" xmlns="http://www.w3.org/2000/svg" xmlns:xlink="http://www.w3.org/1999/xlink" x="0px" y="0px"
	 viewBox="0 0 3.1 15.1" style="enable-background:new 0 0 3.1 15.1;" xml:space="preserve">
<style type="text/css">
	.st0{fill:none;stroke:#121212;stroke-width:1.5;stroke-linecap:round;stroke-linejoin:round;}
</style>
<g id="Frame">
	<path id="Vector" class="st0" d="M1.5,2.3C1.3,2.3,1.1,2.2,1,2.1C0.9,1.9,0.8,1.7,0.8,1.5S0.9,1.1,1,1c0.1-0.1,0.3-0.2,0.5-0.2
		S1.9,0.9,2.1,1c0.1,0.1,0.2,0.3,0.2,0.5S2.2,1.9,2.1,2.1C1.9,2.2,1.7,2.3,1.5,2.3z M1.5,8.3C1.3,8.3,1.1,8.2,1,8.1
		C0.9,7.9,0.8,7.7,0.8,7.5S0.9,7.1,1,7c0.1-0.1,0.3-0.2,0.5-0.2S1.9,6.9,2.1,7c0.1,0.1,0.2,0.3,0.2,0.5S2.2,7.9,2.1,8.1
		C1.9,8.2,1.7,8.3,1.5,8.3z M1.5,14.3c-0.2,0-0.4-0.1-0.5-0.2c-0.1-0.1-0.2-0.3-0.2-0.5S0.9,13.1,1,13c0.1-0.1,0.3-0.2,0.5-0.2
		s0.4,0.1,0.5,0.2c0.1,0.1,0.2,0.3,0.2,0.5s-0.1,0.4-0.2,0.5C1.9,14.2,1.7,14.3,1.5,14.3z"/>
</g>
</svg>
