<?xml version="1.0" encoding="utf-8"?>
<!-- Generator: Adobe Illustrator 27.2.0, SVG Export Plug-In . SVG Version: 6.00 Build 0)  -->
<svg version="1.1" id="Layer_1" xmlns="http://www.w3.org/2000/svg" xmlns:xlink="http://www.w3.org/1999/xlink" x="0px" y="0px"
	 viewBox="0 0 264 60" style="enable-background:new 0 0 264 60;" xml:space="preserve">
<style type="text/css">
	.st0{fill:#FFFFFF;filter:url(#Adobe_OpacityMaskFilter);}
	.st1{mask:url(#mask0_2_307_00000098933857144669625470000012133699350744515986_);}
	.st2{fill:url(#SVGID_1_);}
	.st3{fill:#FFFFFF;filter:url(#Adobe_OpacityMaskFilter_00000075864073412949959120000009890376877675580041_);}
	.st4{mask:url(#mask1_2_307_00000109006513611436571530000008835649949789026693_);}
	.st5{fill:url(#SVGID_00000003788572323431239150000018067496181157047949_);}
	.st6{fill-rule:evenodd;clip-rule:evenodd;fill:#E60000;}
	.st7{fill:#FFFFFF;filter:url(#Adobe_OpacityMaskFilter_00000145741922751838296570000005322089655268666247_);}
	.st8{mask:url(#mask2_2_307_00000077301600162939964520000002057219879210183578_);}
	.st9{fill:url(#SVGID_00000101079882543902481330000007551502709114473117_);}
	.st10{fill:#FFFFFF;filter:url(#Adobe_OpacityMaskFilter_00000140016198808213726830000004235319112014804128_);}
	.st11{mask:url(#mask3_2_307_00000042735355953000585780000010597159426751373698_);}
	.st12{fill:url(#SVGID_00000060022023244203256510000010090388517698078630_);}
	.st13{fill:#FFFFFF;filter:url(#Adobe_OpacityMaskFilter_00000114788176922091177580000006147771139516266932_);}
	.st14{mask:url(#mask4_2_307_00000155857929523742708670000015102756895823849349_);}
	.st15{fill:url(#SVGID_00000132797348628874637680000009232791355934441894_);}
	.st16{fill:#FFFFFF;filter:url(#Adobe_OpacityMaskFilter_00000036939283515242416510000011895587557993341846_);}
	.st17{mask:url(#mask5_2_307_00000071557308232738986430000001499791168246541991_);}
	.st18{fill:url(#SVGID_00000023256155939333456680000006023854176204148911_);}
	.st19{fill:#FFFFFF;filter:url(#Adobe_OpacityMaskFilter_00000053509290765705387840000007219859348413061303_);}
	.st20{mask:url(#mask6_2_307_00000098902075530703193710000000375111743514340277_);}
	.st21{fill:url(#SVGID_00000088102546783408390610000004091531310467103926_);}
	.st22{fill:#FFFFFF;filter:url(#Adobe_OpacityMaskFilter_00000160175899060384001070000006627236836898061221_);}
	.st23{mask:url(#mask7_2_307_00000073712981465354553400000016392784969777214365_);}
	.st24{fill:url(#SVGID_00000109718432010050483540000002137476110294082947_);}
	.st25{fill:#FFFFFF;filter:url(#Adobe_OpacityMaskFilter_00000164513109924145919120000004031145810452543377_);}
	.st26{mask:url(#mask8_2_307_00000177465551329834402910000014414485505485450173_);}
	.st27{fill:url(#SVGID_00000003820878566143820910000007443351593279810961_);}
	.st28{fill-rule:evenodd;clip-rule:evenodd;fill:#FFFFFF;}
	.st29{fill:#FFFFFF;filter:url(#Adobe_OpacityMaskFilter_00000113326802444562338720000016348206205572999840_);}
	.st30{mask:url(#mask9_2_307_00000087407145436968678950000001511632082418857116_);}
	.st31{fill:url(#SVGID_00000106840716291594124950000006081139058692142740_);}
	.st32{fill:#FFFFFF;filter:url(#Adobe_OpacityMaskFilter_00000075140634288395107500000014961725854963861383_);}
	.st33{mask:url(#mask10_2_307_00000004521876317373504520000004975993517534853519_);}
	.st34{fill:url(#SVGID_00000126290497385911553270000002744372903337288354_);}
	.st35{fill:#FFFFFF;filter:url(#Adobe_OpacityMaskFilter_00000000939781043011019030000007599967861333869749_);}
	.st36{mask:url(#mask11_2_307_00000170272478274441455680000007353130956854331567_);}
	.st37{fill:url(#SVGID_00000129909649175667839230000010639950310855240103_);}
	.st38{fill:#121212;}
</style>
<defs>
	<filter id="Adobe_OpacityMaskFilter" filterUnits="userSpaceOnUse" x="-1.1" y="15.1" width="29.7" height="31.5">
		<feColorMatrix  type="matrix" values="1 0 0 0 0  0 1 0 0 0  0 0 1 0 0  0 0 0 1 0"/>
	</filter>
</defs>
<mask maskUnits="userSpaceOnUse" x="-1.1" y="15.1" width="29.7" height="31.5" id="mask0_2_307_00000098933857144669625470000012133699350744515986_">
	<path class="st0" d="M17.6,19.4c-3.7-1.8-12.4-4.3-15.9,2.8c-2.8,5.9-2.7,18.1,4.1,21.3c6.4,3.1,16.2-3.6,19.2-10.1
		C28.6,26.3,21.4,21.2,17.6,19.4z"/>
</mask>
<g class="st1">
	
		<linearGradient id="SVGID_1_" gradientUnits="userSpaceOnUse" x1="21.6924" y1="31.1319" x2="-2.983" y2="31.1319" gradientTransform="matrix(1 0 0 -1 0 62)">
		<stop  offset="0" style="stop-color:#FF0000"/>
		<stop  offset="1" style="stop-color:#F38288"/>
	</linearGradient>
	<path class="st2" d="M28.6,15.1H-1.1v31.5h29.7V15.1z"/>
</g>
<defs>
	
		<filter id="Adobe_OpacityMaskFilter_00000117663424394174214460000011336810209595383425_" filterUnits="userSpaceOnUse" x="-0.9" y="17.5" width="15.8" height="23.5">
		<feColorMatrix  type="matrix" values="1 0 0 0 0  0 1 0 0 0  0 0 1 0 0  0 0 0 1 0"/>
	</filter>
</defs>
<mask maskUnits="userSpaceOnUse" x="-0.9" y="17.5" width="15.8" height="23.5" id="mask1_2_307_00000109006513611436571530000008835649949789026693_">
	<path style="fill:#FFFFFF;filter:url(#Adobe_OpacityMaskFilter_00000117663424394174214460000011336810209595383425_);" d="
		M8.8,17.5c-2.8,0.2-5.5,1.4-7.1,4.7C-0.6,27-0.9,36.1,2.8,41c6.7-0.3,12.2-5.8,12.2-12.6C14.9,23.7,12.5,19.7,8.8,17.5z"/>
</mask>
<g class="st4">
	
		<linearGradient id="SVGID_00000054243832826635496630000017223787385016476822_" gradientUnits="userSpaceOnUse" x1="21.7535" y1="32.7762" x2="2.1555" y2="32.7762" gradientTransform="matrix(1 0 0 -1 0 62)">
		<stop  offset="0" style="stop-color:#FF0000"/>
		<stop  offset="1" style="stop-color:#F38288"/>
	</linearGradient>
	<path style="fill:url(#SVGID_00000054243832826635496630000017223787385016476822_);" d="M14.9,17.5H-0.9V41h15.8V17.5z"/>
</g>
<path class="st6" d="M10.8,31.1c-0.4,0.2-0.9,0.7-1.2,1.3c-0.1,0.4-0.4,1.3,0.1,1.5c0.5,0.2,0.9-0.7,1-1
	C11.1,32.2,11.1,31.6,10.8,31.1z M14.9,32.8c-0.4,0.2-0.8,0.6-1.1,1.2c-0.1,0.3-0.4,1.2,0.1,1.4c0.5,0.2,0.8-0.6,1-1
	C15.1,33.8,15.1,33.2,14.9,32.8z M20,29.4c-0.4,0.2-0.9,0.7-1.2,1.3c-0.1,0.4-0.4,1.3,0.1,1.5c0.5,0.2,0.9-0.7,1-1
	C20.3,30.5,20.2,29.8,20,29.4z M14.8,27.5c-0.4,0.2-0.9,0.7-1.2,1.3c-0.1,0.4-0.4,1.3,0.1,1.5c0.5,0.2,0.9-0.7,1-1
	C15,28.6,15,27.9,14.8,27.5z M9.5,25.5c-0.4,0.2-0.9,0.7-1.2,1.3c-0.1,0.4-0.4,1.3,0.1,1.5c0.5,0.2,0.9-0.7,1-1
	C9.8,26.6,9.8,25.9,9.5,25.5z M5.4,24.2c-0.4,0.2-0.9,0.7-1.2,1.3c-0.1,0.4-0.4,1.3,0.1,1.5c0.5,0.2,0.9-0.7,1-1
	C5.6,25.3,5.6,24.6,5.4,24.2z M8.8,20.9c-0.4,0.1-0.8,0.6-1,1.2c-0.1,0.3-0.3,1.1,0.1,1.3c0.4,0.2,0.8-0.6,0.9-0.9
	C9,21.9,9,21.3,8.8,20.9z M14.6,22.7c-0.5,0.1-1,0.5-1.3,1.1c-0.2,0.3-0.6,1.2-0.1,1.5c0.5,0.3,1-0.5,1.2-0.9
	C14.7,23.8,14.8,23.2,14.6,22.7z M19.2,24.9c-0.4,0.1-0.7,0.5-0.9,1.1c-0.1,0.3-0.3,1,0.1,1.2c0.4,0.2,0.7-0.5,0.8-0.8
	C19.4,25.8,19.4,25.3,19.2,24.9z M5.1,35.2c-0.4,0.2-0.8,0.6-1.1,1.2c-0.1,0.3-0.4,1.2,0.1,1.3c0.5,0.2,0.8-0.6,1-1
	C5.3,36.2,5.3,35.6,5.1,35.2z M9,38.2c-0.4,0.2-0.8,0.6-1.1,1.2c-0.1,0.3-0.4,1.2,0.1,1.3c0.5,0.2,0.8-0.6,1-1
	C9.2,39.2,9.2,38.5,9,38.2z M6.3,29.8c-0.4,0.2-0.8,0.6-1.1,1.2c-0.1,0.3-0.4,1.2,0.1,1.3c0.5,0.2,0.8-0.6,1-1
	C6.5,30.8,6.5,30.2,6.3,29.8z"/>
<defs>
	
		<filter id="Adobe_OpacityMaskFilter_00000156567779457493029980000000836495821113116345_" filterUnits="userSpaceOnUse" x="1.2" y="-13.8" width="52" height="52">
		<feColorMatrix  type="matrix" values="1 0 0 0 0  0 1 0 0 0  0 0 1 0 0  0 0 0 1 0"/>
	</filter>
</defs>
<mask maskUnits="userSpaceOnUse" x="1.2" y="-13.8" width="52" height="52" id="mask2_2_307_00000077301600162939964520000002057219879210183578_">
	<path style="fill:#FFFFFF;filter:url(#Adobe_OpacityMaskFilter_00000156567779457493029980000000836495821113116345_);" d="
		M13.5,1.7c3.7,3,7.5,6.9,10.1,11.1c3.3,5.7,2.3,11.8,2.3,11.8c2-7,7.2-7.8,11.1-12.1c2.3-2.6,4.1-6.2,4-11.3
		c-0.7-0.9-13.5-0.9-15.3,10c-1.5-3.1-4-7.2-7.8-11.1C16.3,0.4,14.9,1,13.5,1.7z"/>
</mask>
<g class="st8">
	
		<linearGradient id="SVGID_00000182523238961782929030000016131507627165286042_" gradientUnits="userSpaceOnUse" x1="25.5377" y1="48.0522" x2="41.9445" y2="64.459" gradientTransform="matrix(1 0 0 -1 0 62)">
		<stop  offset="0" style="stop-color:#4BBC39"/>
		<stop  offset="1" style="stop-color:#BEDE19"/>
	</linearGradient>
	<path style="fill:url(#SVGID_00000182523238961782929030000016131507627165286042_);" d="M27.2,38.3l26-26l-26-26l-26,26L27.2,38.3
		z"/>
</g>
<defs>
	
		<filter id="Adobe_OpacityMaskFilter_00000166651436736351253780000001551430616550167436_" filterUnits="userSpaceOnUse" x="14.5" y="-5.6" width="37.7" height="37.7">
		<feColorMatrix  type="matrix" values="1 0 0 0 0  0 1 0 0 0  0 0 1 0 0  0 0 0 1 0"/>
	</filter>
</defs>
<mask maskUnits="userSpaceOnUse" x="14.5" y="-5.6" width="37.7" height="37.7" id="mask3_2_307_00000042735355953000585780000010597159426751373698_">
	<path style="fill:#FFFFFF;filter:url(#Adobe_OpacityMaskFilter_00000166651436736351253780000001551430616550167436_);" d="
		M25.9,20.2c0.2,2.5-0.1,4.3-0.1,4.3c2-7,7.2-7.8,11.1-12.1c2.2-2.4,3.9-5.8,4-10.5c-0.7,1.8-2,3.9-4.3,5.5
		C31.4,11.2,26.1,15.7,25.9,20.2z"/>
</mask>
<g class="st11">
	
		<linearGradient id="SVGID_00000103944180849530861630000011811907446073599658_" gradientUnits="userSpaceOnUse" x1="27.3159" y1="42.7453" x2="43.8886" y2="59.318" gradientTransform="matrix(1 0 0 -1 0 62)">
		<stop  offset="0" style="stop-color:#3AA34E"/>
		<stop  offset="1" style="stop-color:#BEDE19"/>
	</linearGradient>
	<path style="fill:url(#SVGID_00000103944180849530861630000011811907446073599658_);" d="M33.3,32.1l18.9-18.9L33.3-5.6L14.5,13.2
		L33.3,32.1z"/>
</g>
<defs>
	
		<filter id="Adobe_OpacityMaskFilter_00000005241354555479618990000012109751170597421185_" filterUnits="userSpaceOnUse" x="8" y="6" width="16.7" height="17.1">
		<feColorMatrix  type="matrix" values="1 0 0 0 0  0 1 0 0 0  0 0 1 0 0  0 0 0 1 0"/>
	</filter>
</defs>
<mask maskUnits="userSpaceOnUse" x="8" y="6" width="16.7" height="17.1" id="mask4_2_307_00000155857929523742708670000015102756895823849349_">
	<path style="fill:#FFFFFF;filter:url(#Adobe_OpacityMaskFilter_00000005241354555479618990000012109751170597421185_);" d="M8,6.4
		c0,0,0.2,8.3,7.9,10.8c4.3,1.7,7.3,3.8,8.8,5.9C23.7,13.6,19.5,6,8,6.4z"/>
</mask>
<g class="st14">
	
		<linearGradient id="SVGID_00000083781847472283411460000001468092044066108596_" gradientUnits="userSpaceOnUse" x1="20.3713" y1="47.4228" x2="3.553" y2="47.4228" gradientTransform="matrix(1 0 0 -1 0 62)">
		<stop  offset="0" style="stop-color:#4BBC39"/>
		<stop  offset="1" style="stop-color:#BEDE19"/>
	</linearGradient>
	<path style="fill:url(#SVGID_00000083781847472283411460000001468092044066108596_);" d="M24.7,6H8v17.1h16.7V6z"/>
</g>
<defs>
	
		<filter id="Adobe_OpacityMaskFilter_00000155135131846688765880000015510460321140384663_" filterUnits="userSpaceOnUse" x="3.7" y="1.8" width="25.2" height="25.5">
		<feColorMatrix  type="matrix" values="1 0 0 0 0  0 1 0 0 0  0 0 1 0 0  0 0 0 1 0"/>
	</filter>
</defs>
<mask maskUnits="userSpaceOnUse" x="3.7" y="1.8" width="25.2" height="25.5" id="mask5_2_307_00000071557308232738986430000001499791168246541991_">
	<path style="fill:#FFFFFF;filter:url(#Adobe_OpacityMaskFilter_00000155135131846688765880000015510460321140384663_);" d="M8,6.4
		c0,0,0,1.1,0.4,2.6c0,0,13.3-0.1,16.2,14.1C23.7,13.6,19.5,6,8,6.4z"/>
</mask>
<g class="st17">
	
		<linearGradient id="SVGID_00000129896445037670532100000007467242136162197635_" gradientUnits="userSpaceOnUse" x1="24.2618" y1="45.3119" x2="4.3112" y2="50.6576" gradientTransform="matrix(1 0 0 -1 0 62)">
		<stop  offset="0" style="stop-color:#3AA34E"/>
		<stop  offset="1" style="stop-color:#BEDE19"/>
	</linearGradient>
	<path style="fill:url(#SVGID_00000129896445037670532100000007467242136162197635_);" d="M29,7.2L9.1,1.8L3.7,22l19.8,5.3L29,7.2z"
		/>
</g>
<defs>
	
		<filter id="Adobe_OpacityMaskFilter_00000179604437680719934620000015713205983026959030_" filterUnits="userSpaceOnUse" x="11.2" y="30.9" width="29.1" height="29.1">
		<feColorMatrix  type="matrix" values="1 0 0 0 0  0 1 0 0 0  0 0 1 0 0  0 0 0 1 0"/>
	</filter>
</defs>
<mask maskUnits="userSpaceOnUse" x="11.2" y="30.9" width="29.1" height="29.1" id="mask6_2_307_00000098902075530703193710000000375111743514340277_">
	<path style="fill:#FFFFFF;filter:url(#Adobe_OpacityMaskFilter_00000179604437680719934620000015713205983026959030_);" d="
		M25.7,30.9c8,0,14.5,6.5,14.5,14.5c0,8-6.5,14.5-14.5,14.5c-8,0-14.5-6.5-14.5-14.5S17.7,30.9,25.7,30.9z"/>
</mask>
<g class="st20">
	
		<linearGradient id="SVGID_00000031889107309037996040000011763424216383695753_" gradientUnits="userSpaceOnUse" x1="12.5431" y1="16.5387" x2="33.7789" y2="16.5387" gradientTransform="matrix(1 0 0 -1 0 62)">
		<stop  offset="0" style="stop-color:#FFBE04"/>
		<stop  offset="1" style="stop-color:#FF7F00"/>
	</linearGradient>
	<path style="fill:url(#SVGID_00000031889107309037996040000011763424216383695753_);" d="M40.3,30.9H11.2V60h29.1V30.9z"/>
</g>
<defs>
	
		<filter id="Adobe_OpacityMaskFilter_00000075122810994906280500000007358132216189909432_" filterUnits="userSpaceOnUse" x="21.2" y="31.2" width="19.1" height="28.8">
		<feColorMatrix  type="matrix" values="1 0 0 0 0  0 1 0 0 0  0 0 1 0 0  0 0 0 1 0"/>
	</filter>
</defs>
<mask maskUnits="userSpaceOnUse" x="21.2" y="31.2" width="19.1" height="28.8" id="mask7_2_307_00000073712981465354553400000016392784969777214365_">
	<path style="fill:#FFFFFF;filter:url(#Adobe_OpacityMaskFilter_00000075122810994906280500000007358132216189909432_);" d="
		M28.6,31.2c6.7,1.3,11.7,7.2,11.7,14.3c0,8-6.5,14.5-14.5,14.5c-1.6,0-3.1-0.3-4.5-0.7C30.5,60,38.1,41.1,28.6,31.2z"/>
</mask>
<g class="st23">
	
		<linearGradient id="SVGID_00000011750594898063381150000012856488413423295640_" gradientUnits="userSpaceOnUse" x1="12.3805" y1="16.4084" x2="29.4365" y2="16.4084" gradientTransform="matrix(1 0 0 -1 0 62)">
		<stop  offset="0" style="stop-color:#FFBE04"/>
		<stop  offset="1" style="stop-color:#FF7F00"/>
	</linearGradient>
	<path style="fill:url(#SVGID_00000011750594898063381150000012856488413423295640_);" d="M40.3,31.2H21.2V60h19.1V31.2z"/>
</g>
<defs>
	
		<filter id="Adobe_OpacityMaskFilter_00000076595643428927673650000014961601313993878960_" filterUnits="userSpaceOnUse" x="11.2" y="31.2" width="15.7" height="24.5">
		<feColorMatrix  type="matrix" values="1 0 0 0 0  0 1 0 0 0  0 0 1 0 0  0 0 0 1 0"/>
	</filter>
</defs>
<mask maskUnits="userSpaceOnUse" x="11.2" y="31.2" width="15.7" height="24.5" id="mask8_2_307_00000177465551329834402910000014414485505485450173_">
	<path style="fill:#FFFFFF;filter:url(#Adobe_OpacityMaskFilter_00000076595643428927673650000014961601313993878960_);" d="
		M15.3,55.6c-2.6-2.6-4.1-6.2-4.1-10.2c0-7.1,5.1-13.1,11.9-14.3c2.3,2.6,3.8,6.1,3.8,9.9C26.9,48.2,22,54.1,15.3,55.6z"/>
</mask>
<g class="st26">
	
		<linearGradient id="SVGID_00000183967570134043785250000011156213428381566338_" gradientUnits="userSpaceOnUse" x1="18.6455" y1="18.6218" x2="33.579" y2="18.6218" gradientTransform="matrix(1 0 0 -1 0 62)">
		<stop  offset="0" style="stop-color:#FFBE04"/>
		<stop  offset="1" style="stop-color:#FF7F00"/>
	</linearGradient>
	<path style="fill:url(#SVGID_00000183967570134043785250000011156213428381566338_);" d="M26.9,31.2H11.2v24.5h15.7V31.2z"/>
</g>
<path class="st28" d="M25.2,57.5c-5.6-1.6-9.8-6.7-9.8-12.8c0-1.1,0.1-2.1,0.4-3.1c0.6-2.5,1.9-4.6,3.6-6.4c-2.5,1.6-4.4,4-5.2,6.8
	c-0.3,1.1-0.5,2.2-0.5,3.4C13.7,51.9,18.8,57.2,25.2,57.5z"/>
<defs>
	
		<filter id="Adobe_OpacityMaskFilter_00000111889348227977823990000004169609239726924465_" filterUnits="userSpaceOnUse" x="25.2" y="6.8" width="38.8" height="52.9">
		<feColorMatrix  type="matrix" values="1 0 0 0 0  0 1 0 0 0  0 0 1 0 0  0 0 0 1 0"/>
	</filter>
</defs>
<mask maskUnits="userSpaceOnUse" x="25.2" y="6.8" width="38.8" height="52.9" id="mask9_2_307_00000087407145436968678950000001511632082418857116_">
	<path style="fill:#FFFFFF;filter:url(#Adobe_OpacityMaskFilter_00000111889348227977823990000004169609239726924465_);" d="
		M51.6,45.6c-2.2,5.3-7.9,14.2-15.1,10.7c-3.9-1.9-2.6-5.6-3.6-9c-2.6-9.6-7.8-13.2-5.1-22.3C33.1,6.8,63.9,16.2,51.6,45.6z"/>
</mask>
<g class="st30">
	
		<linearGradient id="SVGID_00000176726564797084500160000011160151503663829391_" gradientUnits="userSpaceOnUse" x1="52.2995" y1="28.7496" x2="29.0926" y2="28.7496" gradientTransform="matrix(1 0 0 -1 0 62)">
		<stop  offset="0" style="stop-color:#016737"/>
		<stop  offset="1" style="stop-color:#4BBC39"/>
	</linearGradient>
	<path style="fill:url(#SVGID_00000176726564797084500160000011160151503663829391_);" d="M63.9,6.8H25.2v52.9h38.8V6.8z"/>
</g>
<defs>
	
		<filter id="Adobe_OpacityMaskFilter_00000116213291577456701070000016927932093054134451_" filterUnits="userSpaceOnUse" x="35.9" y="28.2" width="20.1" height="31.5">
		<feColorMatrix  type="matrix" values="1 0 0 0 0  0 1 0 0 0  0 0 1 0 0  0 0 0 1 0"/>
	</filter>
</defs>
<mask maskUnits="userSpaceOnUse" x="35.9" y="28.2" width="20.1" height="31.5" id="mask10_2_307_00000004521876317373504520000004975993517534853519_">
	<path style="fill:#FFFFFF;filter:url(#Adobe_OpacityMaskFilter_00000116213291577456701070000016927932093054134451_);" d="
		M51.6,45.6c-2.2,5.3-7.9,14.2-15.1,10.7c-0.2-0.1-0.4-0.2-0.6-0.4C41.8,56,56,42.6,54.1,28.2C55,32.8,54.5,38.6,51.6,45.6z"/>
</mask>
<g class="st33">
	
		<linearGradient id="SVGID_00000062877641372908302360000002245379409464738440_" gradientUnits="userSpaceOnUse" x1="47.8086" y1="18.0453" x2="32.0878" y2="18.0453" gradientTransform="matrix(1 0 0 -1 0 62)">
		<stop  offset="0" style="stop-color:#016737"/>
		<stop  offset="1" style="stop-color:#4BBC39"/>
	</linearGradient>
	<path style="fill:url(#SVGID_00000062877641372908302360000002245379409464738440_);" d="M56,28.2H35.9v31.5H56V28.2z"/>
</g>
<defs>
	
		<filter id="Adobe_OpacityMaskFilter_00000119838380950321605230000002468697393771670458_" filterUnits="userSpaceOnUse" x="25.7" y="14.8" width="18.5" height="27.1">
		<feColorMatrix  type="matrix" values="1 0 0 0 0  0 1 0 0 0  0 0 1 0 0  0 0 0 1 0"/>
	</filter>
</defs>
<mask maskUnits="userSpaceOnUse" x="25.7" y="14.8" width="18.5" height="27.1" id="mask11_2_307_00000170272478274441455680000007353130956854331567_">
	<path style="fill:#FFFFFF;filter:url(#Adobe_OpacityMaskFilter_00000119838380950321605230000002468697393771670458_);" d="
		M31,41.9c-2.6-6-5.3-9.8-3.2-16.9c2.1-7.3,8.4-10.1,14.3-9c1.3,2.5,2,5.4,2,8.4C44.2,32.6,38.6,39.7,31,41.9z"/>
</mask>
<g class="st36">
	
		<linearGradient id="SVGID_00000143585328300279698440000006629021934713467014_" gradientUnits="userSpaceOnUse" x1="52.4699" y1="33.6749" x2="31.9035" y2="33.6749" gradientTransform="matrix(1 0 0 -1 0 62)">
		<stop  offset="0" style="stop-color:#016737"/>
		<stop  offset="1" style="stop-color:#4BBC39"/>
	</linearGradient>
	<path style="fill:url(#SVGID_00000143585328300279698440000006629021934713467014_);" d="M44.2,14.8H25.7v27.1h18.5V14.8z"/>
</g>
<path class="st28" d="M35.4,44c0,0-6.1-7.5-5.5-15.6c0.4-5.7,4.9-6.3,3.1,0.4C32.1,32,33,37.2,35.4,44z"/>
<path class="st38" d="M92.3,16.1v4.3H79.4v8.6h10.8v4.3H79.4V45H74V16.1H92.3z M95,45V24.5h2.9c0.5,0,0.9,0.1,1.1,0.3
	c0.2,0.2,0.3,0.5,0.4,1l0.3,2.5c0.7-1.3,1.6-2.3,2.6-3c1-0.7,2.1-1.1,3.3-1.1c1,0,1.9,0.2,2.5,0.7l-0.6,3.7c0,0.2-0.1,0.4-0.3,0.5
	c-0.1,0.1-0.3,0.1-0.5,0.1c-0.2,0-0.5,0-0.8-0.1s-0.8-0.1-1.4-0.1c-1,0-1.9,0.3-2.6,0.9c-0.7,0.6-1.4,1.4-1.9,2.5V45H95z
	 M115.8,24.5v13c0,1.3,0.3,2.2,0.9,2.9c0.6,0.7,1.5,1,2.6,1c0.9,0,1.7-0.2,2.4-0.6c0.7-0.4,1.5-0.9,2.1-1.6V24.5h4.9V45h-3
	c-0.6,0-1.1-0.3-1.3-0.9l-0.3-1.6c-0.4,0.4-0.9,0.8-1.3,1.2c-0.5,0.3-0.9,0.6-1.5,0.9c-0.5,0.2-1.1,0.4-1.7,0.6
	c-0.6,0.1-1.2,0.2-1.9,0.2c-1.1,0-2.1-0.2-3-0.6c-0.9-0.4-1.6-0.9-2.2-1.6c-0.6-0.7-1-1.5-1.3-2.5c-0.3-1-0.4-2-0.4-3.2v-13H115.8z
	 M139.3,24.5V45h-4.9V24.5H139.3z M140,18.5c0,0.4-0.1,0.8-0.3,1.2c-0.2,0.4-0.4,0.7-0.7,1c-0.3,0.3-0.6,0.5-1,0.7
	c-0.4,0.2-0.8,0.2-1.2,0.2c-0.4,0-0.8-0.1-1.2-0.2c-0.4-0.2-0.7-0.4-1-0.7c-0.3-0.3-0.5-0.6-0.7-1c-0.2-0.4-0.2-0.8-0.2-1.2
	c0-0.4,0.1-0.9,0.2-1.2c0.2-0.4,0.4-0.7,0.7-1s0.6-0.5,1-0.7c0.4-0.2,0.8-0.3,1.2-0.3c0.4,0,0.9,0.1,1.2,0.3c0.4,0.2,0.7,0.4,1,0.7
	c0.3,0.3,0.5,0.6,0.7,1C140,17.6,140,18.1,140,18.5z M151.6,45.3c-1.8,0-3.1-0.5-4.1-1.5c-1-1-1.4-2.4-1.4-4.2V28.2H144
	c-0.3,0-0.5-0.1-0.7-0.3c-0.2-0.2-0.3-0.4-0.3-0.8v-2l3.3-0.5l1-5.6c0.1-0.3,0.2-0.5,0.4-0.6c0.2-0.1,0.4-0.2,0.7-0.2h2.6v6.5h5.4
	v3.5H151v11.1c0,0.6,0.2,1.1,0.5,1.5c0.3,0.4,0.7,0.5,1.3,0.5c0.3,0,0.6,0,0.8-0.1c0.2-0.1,0.4-0.2,0.5-0.2c0.2-0.1,0.3-0.2,0.4-0.2
	c0.1-0.1,0.2-0.1,0.4-0.1c0.1,0,0.3,0,0.4,0.1c0.1,0.1,0.2,0.2,0.3,0.3l1.5,2.4c-0.7,0.6-1.5,1.1-2.5,1.4
	C153.6,45.2,152.6,45.3,151.6,45.3z M168.4,45V16.1h10c1.9,0,3.5,0.2,4.8,0.5c1.3,0.4,2.4,0.9,3.3,1.5c0.9,0.7,1.5,1.5,1.9,2.4
	c0.4,0.9,0.6,2,0.6,3.2c0,0.7-0.1,1.3-0.3,2c-0.2,0.6-0.5,1.2-0.9,1.7c-0.4,0.5-0.9,1-1.6,1.5c-0.6,0.4-1.4,0.8-2.3,1.1
	c4,0.9,6,3,6,6.4c0,1.2-0.2,2.4-0.7,3.4c-0.5,1-1.1,1.9-2,2.7c-0.9,0.7-2,1.3-3.3,1.8c-1.3,0.4-2.8,0.6-4.5,0.6H168.4z M173.8,32.3
	v8.5h5.5c1,0,1.8-0.1,2.5-0.4c0.7-0.2,1.2-0.6,1.6-1c0.4-0.4,0.7-0.9,0.9-1.4c0.2-0.5,0.3-1.1,0.3-1.7c0-0.6-0.1-1.2-0.3-1.7
	c-0.2-0.5-0.5-0.9-0.9-1.3c-0.4-0.4-1-0.6-1.6-0.8c-0.7-0.2-1.5-0.3-2.4-0.3H173.8z M173.8,28.6h4.3c1.8,0,3.2-0.3,4.2-1
	c0.9-0.7,1.4-1.7,1.4-3.2c0-1.5-0.4-2.6-1.3-3.2c-0.9-0.6-2.2-1-4-1h-4.6V28.6z M198.7,24.5v13c0,1.3,0.3,2.2,0.9,2.9
	c0.6,0.7,1.5,1,2.6,1c0.9,0,1.7-0.2,2.4-0.6c0.7-0.4,1.5-0.9,2.1-1.6V24.5h4.9V45h-3c-0.6,0-1.1-0.3-1.3-0.9l-0.3-1.6
	c-0.4,0.4-0.9,0.8-1.3,1.2c-0.5,0.3-0.9,0.6-1.5,0.9c-0.5,0.2-1.1,0.4-1.7,0.6c-0.6,0.1-1.2,0.2-1.9,0.2c-1.1,0-2.1-0.2-3-0.6
	c-0.9-0.4-1.6-0.9-2.2-1.6c-0.6-0.7-1-1.5-1.3-2.5c-0.3-1-0.4-2-0.4-3.2v-13H198.7z M216.9,45V24.5h2.9c0.5,0,0.9,0.1,1.1,0.3
	c0.2,0.2,0.3,0.5,0.4,1l0.3,2.5c0.7-1.3,1.6-2.3,2.6-3c1-0.7,2.1-1.1,3.3-1.1c1,0,1.9,0.2,2.5,0.7l-0.6,3.7c0,0.2-0.1,0.4-0.3,0.5
	c-0.1,0.1-0.3,0.1-0.5,0.1c-0.2,0-0.5,0-0.8-0.1s-0.8-0.1-1.4-0.1c-1,0-1.9,0.3-2.6,0.9c-0.7,0.6-1.4,1.4-1.9,2.5V45H216.9z
	 M245.4,28.5c-0.1,0.2-0.3,0.4-0.4,0.5c-0.1,0.1-0.3,0.1-0.6,0.1c-0.2,0-0.5-0.1-0.8-0.2c-0.3-0.1-0.6-0.3-0.9-0.4
	c-0.4-0.2-0.8-0.3-1.2-0.5c-0.5-0.1-1-0.2-1.6-0.2c-1,0-1.7,0.2-2.3,0.6c-0.6,0.4-0.8,1-0.8,1.6c0,0.4,0.1,0.8,0.4,1.1
	c0.3,0.3,0.7,0.6,1.1,0.8c0.5,0.2,1,0.4,1.6,0.6c0.6,0.2,1.2,0.4,1.8,0.6c0.6,0.2,1.2,0.5,1.8,0.7c0.6,0.3,1.1,0.6,1.6,1
	c0.5,0.4,0.9,0.9,1.1,1.5c0.3,0.6,0.4,1.3,0.4,2.1c0,1-0.2,1.9-0.5,2.7c-0.4,0.8-0.9,1.5-1.6,2.2c-0.7,0.6-1.6,1.1-2.6,1.4
	c-1,0.3-2.2,0.5-3.5,0.5c-0.7,0-1.4-0.1-2.1-0.2c-0.7-0.1-1.3-0.3-1.9-0.5c-0.6-0.2-1.2-0.5-1.7-0.8c-0.5-0.3-1-0.6-1.4-1l1.1-1.9
	c0.1-0.2,0.3-0.4,0.5-0.5c0.2-0.1,0.5-0.2,0.8-0.2c0.3,0,0.6,0.1,0.9,0.3c0.3,0.2,0.6,0.4,1,0.6c0.4,0.2,0.8,0.4,1.3,0.6
	c0.5,0.2,1.1,0.3,1.9,0.3c0.6,0,1.1-0.1,1.5-0.2c0.4-0.1,0.8-0.3,1-0.6c0.3-0.2,0.5-0.5,0.6-0.8c0.1-0.3,0.2-0.6,0.2-0.9
	c0-0.5-0.1-0.9-0.4-1.2c-0.3-0.3-0.7-0.6-1.1-0.8c-0.5-0.2-1-0.4-1.6-0.6c-0.6-0.2-1.2-0.4-1.9-0.6c-0.6-0.2-1.2-0.5-1.9-0.7
	c-0.6-0.3-1.1-0.7-1.6-1.1c-0.5-0.4-0.8-1-1.1-1.6c-0.3-0.6-0.4-1.4-0.4-2.3c0-0.8,0.2-1.6,0.5-2.4c0.3-0.8,0.8-1.4,1.5-2
	c0.7-0.6,1.5-1,2.4-1.4c1-0.3,2.1-0.5,3.4-0.5c1.4,0,2.7,0.2,3.9,0.7c1.2,0.5,2.1,1.1,2.9,1.8L245.4,28.5z M257.4,45.3
	c-1.8,0-3.1-0.5-4.1-1.5c-1-1-1.4-2.4-1.4-4.2V28.2h-2.1c-0.3,0-0.5-0.1-0.7-0.3c-0.2-0.2-0.3-0.4-0.3-0.8v-2l3.3-0.5l1-5.6
	c0.1-0.3,0.2-0.5,0.4-0.6c0.2-0.1,0.4-0.2,0.7-0.2h2.6v6.5h5.4v3.5h-5.4v11.1c0,0.6,0.2,1.1,0.5,1.5c0.3,0.4,0.7,0.5,1.3,0.5
	c0.3,0,0.6,0,0.8-0.1c0.2-0.1,0.4-0.2,0.5-0.2c0.2-0.1,0.3-0.2,0.4-0.2c0.1-0.1,0.2-0.1,0.4-0.1c0.1,0,0.3,0,0.4,0.1
	c0.1,0.1,0.2,0.2,0.3,0.3l1.5,2.4c-0.7,0.6-1.5,1.1-2.5,1.4C259.4,45.2,258.4,45.3,257.4,45.3z"/>
</svg>
